<?xml version="1.0" encoding="iso-8859-1"?>
<!-- Generator: Adobe Illustrator 25.1.0, SVG Export Plug-In . SVG Version: 6.00 Build 0)  -->
<svg version="1.1" id="Layer_1" xmlns="http://www.w3.org/2000/svg" xmlns:xlink="http://www.w3.org/1999/xlink" x="0px" y="0px"
	 width="720px" height="672.429px" viewBox="0 0 720 672.429" enable-background="new 0 0 720 672.429" xml:space="preserve">
<path fill="#010101" d="M714.639,599.227c-4.139-3.007-8.603-4.1-13.305-2.05c-4.842,2.041-10.248,5.888-10.248,5.888
	c-5.623,4.07-9.574,3.725-14.929,4.035c-9.818,1.126-17.056-1.797-28.839-0.188c0,0,4.583-8.165,10.435-14.217
	c2.688-1.982,7.473-3.263,9.732-4.428c0.173-0.667,0.548-2.718-1.451-2.735c0,0-5.972,0.206-9.1,2.05
	c-3.921,2.312-6.862,5.513-8.23,7.119c0,0-2.196-1.368-3.507-0.018c-3.644,4.076-2.908,3.185-7.22,4.279
	c-1.412,0.14-5.352-2.259-8.531-5.236c-2.443,0.599-2.443,1.281-3.868,0.837c-1.523-1.323-4.07-2.735-5.438-4.246
	c1.094-2.44,1.049-2.53,2.259-5.593c0.122-0.286-0.027-0.53-0.578-1.585c-3.522-1.848-5.301-3.683-9.664-6.231
	c-25.331-23.466-69.03-56.611-96.281-73.318c-9.267-5.694-7.932-6.687-20.436-8.635c-6.567-7.384-13.886-13.674-20.814-19.443
	c-17.223-14.732-38.103-22.447-51.926-29.712c9.815-14.16-7.885-23.105-15.018-26.377l-5.748-13.612
	c6.585-24.068,7.321-44.965,4.38-75.66c-1.249-13.034-9.646-18.353-12.673-31.08c-2.959-12.384-5.626-20.629-2.822-32.549
	c10.858-25.483,9.747-27.879,10.003-43.973c2.291-5.337,3.06-8.314,3.677-19.244c6.803-14.419,7.503-24.253,10.155-36.124
	c1.886-1.404,4.225-2.497,5.557-8.227c1.57-6.687,2.548-17.122,3.042-21.38c0.122-3.15-0.191-3.781-1.302-5.081
	c0.313-8.963,2.497-25.793,2.908-31.473c0.581-1.624,0.617-3.248,0.617-3.248c5.233-14.795-2.464-14.163-0.292-17.548
	c0.736-0.65,1.249-0.754,2.104-0.974c1.293,0.051,2.616,0.033,3.951-0.069c21.103-1.487,36.997-19.789,35.522-40.895
	C465.288,17.18,446.992,1.27,425.865,2.742c-21.103,1.487-37.051,19.793-35.525,40.895c0.642,8.88,2.947,15.564,4.3,18.505
	c2.086,4.619,5.161,11.085,8.019,16.061c1.004,1.746,0.733,3.987,1.314,5.56c1.812,4.806,3.334,7.545,0.974,16.079
	c-0.578,3.096-4.017,18.284-6.311,26.443c-2.652,0.188-3.251,2.753-3.251,2.753c-1.812,6.448-4.857,16.335-6.806,23.809
	c-0.375,2.551-0.566,2.995,0.322,4.55c-5.015,11.305-8.773,13.442-6.943,26.339c-1.725,4.568-3.951,10.641-5.742,16.541
	c-1.907,6.38-3.382,12.655-5.554,19.035c-9.187,7.852-9.869,9.166-13.308,16.3c0.036-4.395-2.598-6.365-4.172-8.484
	c0.086-7.527,0.653-6.329-9.577-9.05c-1.573-4.446-2.959-2.002-6.687-5.799c-3.883-4.002-6.192-8.04-18.385-9.851
	c-9.765-0.581-17.804,3.233-25.433,10.861c-6.877,6.925-10.93,16.282-9.818,27.656c1.046,10.724,11.803,18.439,16.011,22.542
	c-2.753,3.168-1.982,7.664-5.37,10.555c-2.172,2.965-7.816,7.137-7.816,7.137c-13.204,1.558-16.761,11.46-20.149,16.779
	c-1.335,2.259-2.667,4.327-4.07,6.705c-3.609,6.192-7.268,12.879-9.681,18.558c-10.93,9.699-13.102,23.329-13.102,23.329
	c-8.397,8.516-15.069,18.04-20.439,26.216c-11.612,17.739-15.239,29.193-18.746,36.431c-3.591,4.774-7.012,7.53-11.064,12.196
	c-2.429,1.266-6.842,7.697-6.842,7.697c-4.07,2.02-11.323,6.311-15.138,7.798c-7.902,2.104-18.096,3.305-22.167,3.269
	c-3.215-0.018-2.002,3.159-0.667,3.966c1.317,0.808,11.597,2.157,11.597,2.157c4.958,0.545,11.869-0.498,16.556-2.172
	c4.291-1.523,2.053,1.523,2.053,1.523c-4.345,2.783-7.867,3.984-10.331,4.941c-5.304,3.543,0.599,6.228,5.986,4.759
	c5.714-1.895,11.439-3.76,17.173-5.596c1.299,0.962-0.888,3.084-2.122,5.65c-0.787,1.642-1.144,3.915,0.018,4.684
	c8.793,1.35,10.811-9.05,16.198-12.575c7.032-2.393,3.558,4.774,14.556,6.52c2.858,0.513,8.895,1.266,9.339-3.334
	c0.191-3.677-3.111-3.537-6.413-4.41c-1.913-0.477-3.471-2.718-4.07-4.41c0,0-0.375-0.444,1.061-4.926
	c-0.992-3.028-1.657-8.674,0.223-12.709c-0.051,0.203,3.439-13.409,14.351-25.626c27.486-17.116,30.907-25.88,40.621-46.583
	c5.441-1.743,8.776-2.33,11.836-10.227c1.383,0.119,2.616,0.063,3.609,0.22c0.957,0.131,1.678,0.459,2.548,0.441
	c1.898,4.225,7.971,13.245,11.219,17.11c-2.169,7.032,5.474,12.42,5.629,13.069c0.855,5.596,2.154,12.092,5.301,19.857
	c-4.651,5.575-3.609,4.16-7.783,10.057c-19.649,1.249-11.952,25.966-14.279,35.215c-2.396,4.482-3.612,4.482-8.963,8.773
	c-6.755,1.88-8.996,0.885-14.16,10.245c-6.347,3.471-33.988,25.239-48.422,49.614c-12.143,1.165-17.465,5.781-22.936,12.727
	c-16.779,6.657-43.186,20.045-66.396,39.134c-11.633,9.58-17.158,14.833-27.915,26.72c-3.918,4.342-6.124,5.507-7.953,7.134
	c-2.67,2.396,0.375,5.474,0.375,5.474c-1.949,1.231-2.104,1.231-5.355,4.288l-3.832-3.331c-5.37-1.523-5.882,5.59-8.516,8.26
	c-4.464,3.302-5.864-2.548-6.276-7.065c0,0-0.942-4.005-2.104-5.358c-0.65-0.73-1.043-1.603-2.259-0.957
	c-1.144,0.599-1.606,1.508-2.086,3.391c-0.325,1.746,1.162,4.637,2.172,6.979c-0.685,5.846,1.588,7.095,1.949,9.747
	c0.101,0.775-0.343,0.957-1.266,1.49c-2.19-1.57-2.721-1.985-5.662,0.551c-2.36,2.05-2.908,1.812-2.479,6.904
	c-1.693,0.599-4.994,2.554-8.209,3.871c-3.799-0.361-4.806,0.65-4.806,0.65s-3.85,1.451-7.801,2.753
	c-2.154,0.7-3.763,0.974-4.908,1.746c-4.994,0.426-4.994-0.209-7.473,0.682c-4.279,1.535-3.626,0.149-6.022,1.055
	c-4.824,0.331-5.355,1.698-8.227,3.525c-6.892,4.932-8.177,8.23-5.969,13.448c0,0,6.395,10.331,13.341,15.686
	c4.413,3.418,11.648,4.601,17.635,3.471c3.403-0.644,5.986-2.87,7.747-3.677c13.615-6.222,14.401,2.116,25.743-1.797
	c1.299,0.018,8.501-5.545,8.26-9.357c3.933,0.194,2.616-4.243,7.765-7.917c8.895-0.617,8.91-9.258,12.622-12.316
	c0.751-0.653,1.213-1.83,2.187-2.205c4.619-1.645,2.378-0.834,4.568-4.225c3.334-3.799,3.814-2.092,7.628-5.393
	c1.999,0.104,2.464,1.061,7.935-2.908c1.353-0.992,2.977-2.068,5.081-3.796c7.575,3.218,7.304,1.523,11.288-2.05
	c0,0,5.182-4.327,12.041-9.458c8.877-6.672,20.215-14.762,23.398-17.325c5.578-1.713,17.67-9.375,23.895-12.333
	c12.569-7.047,33.162-21.276,43.237-29.5c11.612-4.142,32.873-14.798,32.873-14.798c7.456-3.561,14.708-6.979,20.987-10.605
	c6.961-4.008,13.528-7.971,20.662-11.785c7.664-4.124,15.96-8.111,24.819-12.727c1.639-0.551,3.966-1.985,7.593-1.15
	c1.573,0.361,2.959,1.541,5.355,2.774c6.907,4.032,20.078,7.983,22.849,8.257c7.262,1.678,16.633,5.834,27.563,10.45
	c4.872,2.095,9.801,3.463,15.459,6.144c11.955,5.983,24.512,10.995,36.619,12.5c7.438,0.995,10.111,2.035,13.049,2.84
	c2.876,0.802,6.019,1.404,11.767,2.461c3.838,3.167,10.093,5.68,15.328,8.346c4.875,2.482,33.63,24.202,45.615,33.803
	c6.711,4.976,11.392,6.612,14.422,6.666c26.562,18.847,28.868,25.093,38.925,23.004l8.79,7.047
	c0.355,1.836,10.277,11.443,12.605,11.976c0.027,2.765,11.028,15.662,13.472,15.972c-0.664-0.08,0.977,4.789,3.165,9.047
	c2.002,3.904,3.215,5.73,3.215,5.73c2.652,4.89,3.921,7.116,7.989,4.446c1.675-1.112,5.128-3.194,6.43-4.359
	c10.313-9.342,7.217-6.877,20.334-16.303c5.2-2.36,13.528-7.506,20.868-13.236c7.247-5.668,14.247-12.515,19.446-17.652
	c2.956-2.926,5.283-4.947,6.889-6.755C719.324,602.544,717.563,602.526,714.639,599.227z"/>
<g>
</g>
<g>
</g>
<g>
</g>
<g>
</g>
<g>
</g>
</svg>
