<svg class="svg-icon" style="width: 1em; height: 1em;vertical-align: middle;fill: currentColor;overflow: hidden;" viewBox="0 0 1024 1024" version="1.1" xmlns="http://www.w3.org/2000/svg"><path d="M569.43 761.06c-50.46 0-109.77-0.75-175.36-2.28-122.34-2.85-269-8.8-301.95-15.13-24-4.62-40.86-15.06-50.11-31-10.37-17.97-10.64-42.65-0.76-71.35C49.36 617.71 63 604.67 72.06 596c3.27-3.12 7.74-7.38 8-9 1.51-15.09 45.29-87.13 71-122.67 17.32-24 22-57.31 13.83-99.06a9.89 9.89 0 0 1 17.85-7.49c41.9 60.87 81.93 90.81 119 89 25.52-1.23 50.49-17.06 76.35-48.41 22.94-27.81 42.65-63.32 58.48-91.86 8.8-15.86 16.39-29.55 23.38-40.08A8 8 0 0 1 474 268c35.44 89.53 74.88 153.3 120.57 195 38.06 34.71 72.39 46.62 100 56.18 4 1.39 7.82 2.71 11.48 4 17.72 6.47 59.31 17.18 103.33 28.52 46.5 12 94.58 24.36 119.58 33.08 27.52 9.6 43.11 19.21 52.12 32.11 9.65 13.83 11.41 31 5.72 55.69-5.32 23.06-36.43 41-97.89 56.39-51 12.78-112.86 21.18-161.09 27.08-27.09 3.32-82.82 5.01-158.39 5.01zM184.07 386.92c3 35.09-3.73 64.22-20.07 86.84-31.12 43.09-66.62 105.77-68 115-0.73 7.3-6.36 12.67-12.88 18.9-8.39 8-19.89 19-26.73 38.89-5.8 16.88-10.6 40.67-0.51 58.09 6.83 11.79 20 19.65 39.29 23.35 27 5.2 152.88 11.44 299.3 14.85 125.92 2.93 279.11 3.79 331.4-2.6 47.77-5.84 109-14.15 159.14-26.72 30.1-7.54 81.31-23.36 86.19-44.47 8.81-38.16-1.41-53-47.51-69.09-24.36-8.5-72.12-20.8-118.3-32.69C761 555.77 719 545 700.55 538.23c-3.54-1.29-7.28-2.59-11.23-4-27.44-9.52-65-22.55-105.52-59.48-45-41-83.88-102-118.73-186.2-4.47 7.61-9.3 16.31-14.56 25.8-34 61.29-80.58 145.23-148.06 148.49-20.82 1-42.16-6-63.42-20.82-17.98-12.49-36.4-31.02-54.96-55.1z"  /><path d="M569.42 761.06c-50.46 0-109.77-0.75-175.34-2.28-122.34-2.85-269-8.8-301.95-15.13-24-4.62-40.86-15.06-50.11-31-10.38-17.96-10.65-42.65-0.77-71.35C49.36 617.71 63 604.67 72.06 596c3.27-3.12 7.74-7.38 8-9a8 8 0 0 1 9.45-7c11.57 2.17 30.41 6.2 54.25 11.29 89.35 19.09 255.66 54.61 417.71 73.88C758.4 688.58 889.56 681.1 951.32 643c8.92-5.51 14.92-12.15 18.36-20.32a8 8 0 0 1 14.45-0.62c6.79 12.9 7.63 29 2.64 50.58-5.32 23.06-36.43 41-97.89 56.39-51 12.78-112.86 21.18-161.09 27.08-27.06 3.26-82.79 4.95-158.37 4.95zM56.38 646.5c-5.8 16.88-10.6 40.67-0.51 58.09 6.83 11.79 20 19.65 39.29 23.35 27 5.2 152.89 11.44 299.3 14.85 125.93 2.93 279.11 3.79 331.4-2.6 47.77-5.84 109-14.15 159.14-26.72 30.1-7.54 81.31-23.36 86.19-44.47 2.15-9.3 3.05-17.19 2.72-23.93a67.69 67.69 0 0 1-14.17 11.5c-35.52 21.93-92.13 34.43-168.28 37.26-63.14 2.31-141.15-2-231.87-12.77-162.79-19.35-329.57-55-419.17-74.12-19.77-4.22-36.08-7.71-47.55-10-2.41 3.64-5.93 7-9.76 10.66-8.39 8-19.89 19-26.73 38.89z"  /><path d="M804.76 618.64c-62 0-179.71-6.91-297.4-17.73-99-9.1-281.83-28.78-394.43-58.34a8 8 0 0 1-4.85-11.81c13.29-22.45 28-45.34 40.42-62.82a8 8 0 0 1 8.89-3c4.61 1.43 9.36 2.92 14.23 4.45 27.46 8.61 58.59 18.38 87.77 24.19 35.94 7.16 354.85 54.44 418.81 63.05l26.07 3.49c38.63 5.15 86.69 11.55 125.34 17.47 21.35 3.27 37.25 6 48.62 8.31 16.89 3.45 25.7 5.64 25.7 13.94 0 11.73-16.29 13.77-26 15-12.38 1.55-29.79 2.45-49.61 3.38-6.54 0.27-14.46 0.42-23.56 0.42z m-677.42-88.91c197.49 49 613.59 76.54 700.21 72.47 11.19-0.53 26.35-1.24 39-2.33C825.86 592.45 746 581.8 702.15 576l-26.09-3.49c-64.06-8.63-383.69-56-419.8-63.22-30-6-61.59-15.88-89.43-24.61l-8.62-2.7c-9.68 13.89-20.54 30.7-30.87 47.75zM497 509.41a8 8 0 0 1-7.4-11c0.69-1.69 2-4.67 3.78-8.78 5.1-11.73 14.6-33.57 22.21-53.65 8.45-22.29 11-33 11.72-37.92-7.07 2.53-22.39 11.24-46 29.64-23.9 18.6-42.69 36.51-46.4 42.44a8 8 0 1 1-13.56-8.49c6-9.65 29.07-30 47.91-44.84 15.64-12.31 44.09-33.27 58.92-35.36 5.85-0.82 9.43 1.11 11.4 2.88 6 5.35 6.56 15.36-7.32 52.87-8.11 21.63-18.61 45.8-24.26 58.8-1.69 3.88-3 6.94-3.65 8.47a8 8 0 0 1-7.35 4.94z"  /><path d="M577 553.59h-0.73a8 8 0 0 1-7.24-8.69c0.07-0.81 0.23-2.38 0.45-4.54 6-60.2 6.15-80.82 5.5-87.87-3.58 0.15-10.32 1.1-20 3.87a169.89 169.89 0 0 0-37.58 15.86 8 8 0 1 1-8.06-13.82 187.64 187.64 0 0 1 45-18.46c26.28-6.89 31-1.76 33 0.43 3.45 3.78 7.36 8.06-2 101.57-0.21 2.1-0.36 3.62-0.43 4.41a8 8 0 0 1-7.91 7.24zM677.14 552.17a8.11 8.11 0 0 1-0.89 0 8 8 0 0 1-7.07-8.83c0.58-5.24 10.2-24.13 15.17-28.68a8 8 0 0 1 10.85 11.76c-2.44 2.52-9.19 15.81-10.18 19.17a8 8 0 0 1-7.88 6.58z m7.94-7.12v0.35a1.28 1.28 0 0 1 0-0.34z"  /><path d="M649.91 568.75a8 8 0 0 1-8-7.68c-0.86-21.33-8.39-53.4-12.64-61.55-5.73 0.77-22.57 8.9-44 27.86a8 8 0 0 1-10.6-12c7.3-6.45 44.59-38.26 61.89-30.7 3 1.31 8 3.51 14.71 31.72 3.61 15.24 6.15 32.1 6.63 44a8 8 0 0 1-7.67 8.32z m-21.45-70.56z"  /></svg>